# xmcd
#
# Track frame offsets: 
#        150
#        10592
#        21172
#        34897
#        46015
#        56817
#        67362
#        79397
#        90522
#        100567
#        110800
#        121475
#        132720
#        141637
#        152915
#        165587
#        175525
#        186412
#        197982
#        209557
#        226532
#        238647
#        249735
#        259222
#
# Disc length: 3599 seconds
#
# Revision: 0
# Processed by: cddbd v1.5.1PL2 Copyright (c) Steve Scherf et al.
# Submitted via: ExactAudioCopy v0.95b3
#
DISCID=600e0d18
DTITLE=Various Artist - Havin' Fun With...
DYEAR=1999
DGENRE=Blues/R&B
TTITLE0=Huey And Curley - The Second Line
TTITLE1=Huey Piano Smith and His Band - Bashful Bob
TTITLE2=Pearl Edwards - I'll Never Forget
TTITLE3=Huey Piano Smith and His Band - Tiddley Wink
TTITLE4=The Bobbetts - Baby You Belong To Me
TTITLE5=Huey Piano Smith and His Band - Walking Down The Street
TTITLE6=Danny White - Too Late
TTITLE7=Edgar Blanchard - Let's Get It (instrumental)
TTITLE8=Huey Piano Smith and His Band - The Think You Know
TTITLE9=Pearl Edwards - The Jerk Pt. 1
TTITLE10=Jesse Thomas - I'm Boss, Yeah
TTITLE11=Huey Piano Smith and His Clowns - If It Ain't One Thing, It's A
TTITLE11=nother
TTITLE12=Bobby Marchan - Beatnik Blues
TTITLE13=Huey Piano Smith and His Clowns - At The Mardi Gras
TTITLE14=Huey Piano Smith and His New Clowns - Every Once In A While
TTITLE15=Huey Piano Smith and His New Clowns - Somebody Told It
TTITLE16=Huey Piano Smith and His Band - The Clap
TTITLE17=Huey Piano Smith and His Band - Suzy-Q
TTITLE18=Danny White - Let's Play Pt. 1
TTITLE19=Huey Piano Smith and His Band - Graveyard a.k.a. What'cha Bet
TTITLE20=Huey Piano Smith and His Clowns - I Didn't Do It
TTITLE21=Huey Piano Smith and His Clowns - They Kept On
TTITLE22=Huey Piano Smith and His Clowns - Pop-Eye (Single Master)
TTITLE23=Huey Piano Smith and His Clowns - Rockin' Pneumonia And The Boo
TTITLE23=gie Woogie Flu Pt. 2 (Single Master)
EXTD=
EXTT0=
EXTT1=
EXTT2=
EXTT3=
EXTT4=
EXTT5=
EXTT6=
EXTT7=
EXTT8=
EXTT9=
EXTT10=
EXTT11=
EXTT12=
EXTT13=
EXTT14=
EXTT15=
EXTT16=
EXTT17=
EXTT18=
EXTT19=
EXTT20=
EXTT21=
EXTT22=
EXTT23=
PLAYORDER=
